<svg width="27" height="27" viewBox="0 0 27 27" fill="none" xmlns="http://www.w3.org/2000/svg">
<g clip-path="url(#clip0_787_628)">
<path d="M23.4352 3.16934C21.0621 1.05469 17.9613 0 14.1223 0C9.97736 0 6.59181 1.36055 3.96036 4.08164C1.32365 6.80801 0.0105591 10.1619 0.0105591 14.1592C0.0105591 18.0773 1.24454 21.1992 3.71251 23.5195C6.18048 25.8398 9.38146 27 13.3102 27C16.1789 27 18.5203 26.5992 20.3397 25.7977V22.6547C18.3463 23.5986 16.1525 24.068 13.7531 24.068C10.6102 24.068 8.14747 23.1926 6.35978 21.4312C4.57736 19.6752 3.68087 17.2705 3.68087 14.2225C3.68087 11.0742 4.6881 8.40059 6.70782 6.21211C8.72755 4.02363 11.2588 2.92676 14.3068 2.92676C17.1545 2.92676 19.3693 3.74941 20.9567 5.38945C22.544 7.02949 23.3402 9.13359 23.3402 11.7018C23.3402 13.5791 23.066 15.0979 22.507 16.2633C21.9533 17.4287 21.252 18.0088 20.3977 18.0088C19.5908 18.0088 19.1795 17.2389 19.1795 15.7043C19.1795 14.2646 19.4168 11.2113 19.902 6.53379H16.3055L16.1473 8.16328H16.084C15.6779 6.87656 14.6813 6.23848 13.094 6.23848C11.3379 6.23848 9.83497 7.02422 8.58517 8.60098C7.34064 10.1777 6.7131 12.2238 6.7131 14.734C6.7131 16.6799 7.16134 18.1986 8.0631 19.2955C8.96486 20.3924 10.1461 20.9408 11.6174 20.9408C13.5791 20.9408 14.9291 19.8914 15.6779 17.7979H15.7729C15.8256 18.7313 16.1842 19.4906 16.8434 20.0707C17.5026 20.6561 18.3621 20.9461 19.4168 20.9461C21.5578 20.9461 23.3561 20.0865 24.801 18.3674C26.2512 16.6482 26.9736 14.3701 26.9736 11.5277C26.9895 8.06836 25.8029 5.27871 23.4352 3.16934ZM14.9871 16.3793C14.4123 17.4867 13.6213 18.0457 12.6193 18.0457C11.9707 18.0457 11.4381 17.7504 11.0268 17.165C10.6154 16.5797 10.4098 15.757 10.4098 14.7076C10.4098 13.2258 10.7104 11.9232 11.3115 10.7947C11.9127 9.67148 12.6932 9.10723 13.6529 9.10723C14.3121 9.10723 14.8447 9.36035 15.2455 9.8666C15.6463 10.3729 15.8467 11.0637 15.8467 11.9443C15.852 13.79 15.5619 15.2719 14.9871 16.3793Z" fill="#F2F4F3"/>
</g>
<defs>
<clipPath id="clip0_787_628">
<rect width="27" height="27" fill="white"/>
</clipPath>
</defs>
</svg>
