<svg width="27" height="27" viewBox="0 0 27 27" fill="none" xmlns="http://www.w3.org/2000/svg">
<g clip-path="url(#clip0_787_624)">
<path fill-rule="evenodd" clip-rule="evenodd" d="M13.4595 0C9.88996 0.000447451 6.46674 1.41864 3.94269 3.94269C1.41864 6.46674 0.000447451 9.88996 0 13.4595C0 19.4029 3.88125 24.4401 9.16481 26.2575C9.82631 26.3402 10.0727 25.9268 10.0727 25.596V23.2841C6.3585 24.111 5.53331 21.4684 5.53331 21.4684C4.9545 19.899 4.04663 19.4856 4.04663 19.4856C2.808 18.6604 4.12762 18.6604 4.12762 18.6604C5.44894 18.7431 6.19313 20.0644 6.19313 20.0644C7.43175 22.1282 9.33019 21.5494 10.0744 21.2203C10.1554 20.3124 10.5688 19.7353 10.8996 19.4046C7.92619 19.0738 4.78912 17.9179 4.78912 12.7153C4.78912 11.2303 5.28356 10.0727 6.19313 9.08212C6.10875 8.83406 5.61431 7.43175 6.3585 5.61431C6.3585 5.61431 7.51444 5.28356 10.0727 7.01831C11.1459 6.68756 12.3036 6.60488 13.4595 6.60488C14.6154 6.60488 15.7714 6.77025 16.8446 7.01831C19.4046 5.28525 20.5605 5.61431 20.5605 5.61431C21.303 7.43175 20.8069 8.83406 20.7242 9.16481C21.6336 10.1555 22.1351 11.4532 22.1282 12.798C22.1282 18.0006 18.9894 19.0738 16.0194 19.4046C16.5139 19.8163 16.9273 20.6415 16.9273 21.8801V25.596C16.9273 25.9268 17.1737 26.3385 17.8352 26.2575C20.5116 25.3543 22.8364 23.6327 24.481 21.3361C26.1256 19.0396 27.0068 16.2842 27 13.4595C26.9173 6.02775 20.8912 0 13.4595 0Z" fill="#F2F4F3"/>
</g>
<defs>
<clipPath id="clip0_787_624">
<rect width="27" height="27" fill="white"/>
</clipPath>
</defs>
</svg>
