<svg width="27" height="27" viewBox="0 0 27 27" fill="none" xmlns="http://www.w3.org/2000/svg">
<path d="M23.0288 2.25H3.97125C3.75703 2.24703 3.54432 2.28628 3.34527 2.36552C3.14621 2.44476 2.96472 2.56244 2.81115 2.71183C2.65758 2.86122 2.53495 3.0394 2.45025 3.23619C2.36555 3.43298 2.32044 3.64453 2.3175 3.85875V23.1413C2.32044 23.3555 2.36555 23.567 2.45025 23.7638C2.53495 23.9606 2.65758 24.1388 2.81115 24.2882C2.96472 24.4376 3.14621 24.5552 3.34527 24.6345C3.54432 24.7137 3.75703 24.753 3.97125 24.75H23.0288C23.243 24.753 23.4557 24.7137 23.6547 24.6345C23.8538 24.5552 24.0353 24.4376 24.1889 24.2882C24.3424 24.1388 24.4651 23.9606 24.5498 23.7638C24.6345 23.567 24.6796 23.3555 24.6825 23.1413V3.85875C24.6796 3.64453 24.6345 3.43298 24.5498 3.23619C24.4651 3.0394 24.3424 2.86122 24.1889 2.71183C24.0353 2.56244 23.8538 2.44476 23.6547 2.36552C23.4557 2.28628 23.243 2.24703 23.0288 2.25ZM9.10125 21.0825H5.72626V10.9575H9.10125V21.0825ZM7.41375 9.54C6.9483 9.54 6.50191 9.3551 6.17278 9.02598C5.84366 8.69685 5.65876 8.25046 5.65876 7.785C5.65876 7.31955 5.84366 6.87316 6.17278 6.54403C6.50191 6.21491 6.9483 6.03 7.41375 6.03C7.66091 6.00197 7.9112 6.02647 8.14824 6.10187C8.38528 6.17728 8.60371 6.30191 8.78924 6.46759C8.97478 6.63327 9.12322 6.83627 9.22486 7.0633C9.3265 7.29033 9.37904 7.53626 9.37904 7.785C9.37904 8.03375 9.3265 8.27968 9.22486 8.50671C9.12322 8.73374 8.97478 8.93674 8.78924 9.10242C8.60371 9.2681 8.38528 9.39273 8.14824 9.46814C7.9112 9.54354 7.66091 9.56803 7.41375 9.54ZM21.2738 21.0825H17.8988V15.6488C17.8988 14.2875 17.415 13.3988 16.1888 13.3988C15.8093 13.4015 15.4397 13.5206 15.1299 13.7398C14.8202 13.9591 14.5851 14.268 14.4563 14.625C14.3682 14.8894 14.3301 15.1679 14.3438 15.4463V21.0713H10.9688C10.9688 21.0713 10.9688 11.8688 10.9688 10.9463H14.3438V12.375C14.6504 11.843 15.0963 11.4047 15.6335 11.1074C16.1707 10.81 16.7789 10.6648 17.3925 10.6875C19.6425 10.6875 21.2738 12.1388 21.2738 15.255V21.0825Z" fill="#F2F4F3"/>
</svg>
