<svg width="520" height="415" viewBox="0 0 520 415" fill="none" xmlns="http://www.w3.org/2000/svg">
<g clip-path="url(#clip0_788_2)">
<path d="M127.764 261.294C112.21 261.294 99.5402 237.146 99.5402 207.5C99.5402 177.854 112.21 153.706 127.764 153.706C143.318 153.706 155.936 177.854 155.936 207.5C155.936 237.146 143.318 261.294 127.764 261.294ZM127.764 156.429C113.703 156.429 102.27 179.344 102.27 207.5C102.27 235.656 113.703 258.571 127.764 258.571C141.824 258.571 153.258 235.656 153.258 207.5C153.258 179.344 141.824 156.429 127.764 156.429Z" fill="url(#paint0_linear_788_2)"/>
<path d="M146.459 281.435C125.034 281.435 107.626 248.244 107.626 207.449C107.626 166.654 125.034 133.514 146.459 133.514C167.885 133.514 185.293 166.705 185.293 207.449C185.293 248.192 167.833 281.435 146.459 281.435ZM146.459 137.419C127.197 137.419 111.54 168.863 111.54 207.5C111.54 246.137 127.197 277.581 146.459 277.581C165.721 277.581 181.378 246.137 181.378 207.5C181.378 168.863 165.721 137.419 146.459 137.419Z" fill="url(#paint1_linear_788_2)"/>
<path d="M167.627 304.247C139.043 304.247 116.691 261.756 116.691 207.5C116.691 153.244 139.094 110.753 167.627 110.753C196.16 110.753 218.564 153.244 218.564 207.5C218.564 261.756 196.211 304.247 167.627 304.247ZM167.627 116.61C142.751 116.61 122.511 157.405 122.511 207.5C122.511 257.595 142.751 298.39 167.627 298.39C192.503 298.39 212.744 257.595 212.744 207.5C212.744 157.405 192.503 116.61 167.627 116.61Z" fill="url(#paint2_linear_788_2)"/>
<path d="M191.422 328.344C155.678 328.344 127.661 275.269 127.661 207.5C127.661 139.731 155.678 86.6561 191.422 86.6561C227.165 86.6561 255.182 139.731 255.182 207.5C255.182 275.269 227.165 328.344 191.422 328.344ZM191.422 94.4144C160.571 94.4144 135.438 145.126 135.438 207.449C135.438 269.772 160.571 320.534 191.422 320.534C222.272 320.534 247.405 269.823 247.405 207.5C247.405 145.177 222.272 94.4144 191.422 94.4144Z" fill="url(#paint3_linear_788_2)"/>
<path d="M220.572 353.366C177.104 353.366 143.009 289.296 143.009 207.449C143.009 125.653 177.052 61.583 220.572 61.583C264.092 61.583 298.136 125.704 298.136 207.5C298.136 289.296 264.041 353.366 220.572 353.366ZM220.572 73.2461C184.881 73.2461 154.7 134.747 154.7 207.5C154.7 280.253 184.881 341.754 220.572 341.754C256.264 341.754 286.445 280.253 286.445 207.5C286.445 134.747 256.264 73.2461 220.572 73.2461Z" fill="url(#paint4_linear_788_2)"/>
<path d="M220.572 353.366C177.104 353.366 143.009 289.296 143.009 207.449C143.009 125.653 177.052 61.583 220.572 61.583C264.092 61.583 298.136 125.704 298.136 207.5C298.136 289.296 264.041 353.366 220.572 353.366ZM220.572 73.2461C184.881 73.2461 154.7 134.747 154.7 207.5C154.7 280.253 184.881 341.754 220.572 341.754C256.264 341.754 286.445 280.253 286.445 207.5C286.445 134.747 256.264 73.2461 220.572 73.2461Z" fill="url(#paint5_linear_788_2)"/>
<path d="M262.238 369.19C213.671 369.19 175.662 298.184 175.662 207.5C175.662 116.816 213.722 45.8096 262.238 45.8096C310.806 45.8096 348.815 116.816 348.815 207.5C348.815 298.184 310.754 369.19 262.238 369.19ZM262.238 61.3261C223.714 61.3261 191.216 128.273 191.216 207.5C191.216 286.727 223.765 353.674 262.238 353.674C300.762 353.674 333.261 286.727 333.261 207.5C333.261 128.273 300.711 61.3261 262.238 61.3261Z" fill="url(#paint6_linear_788_2)"/>
<path d="M299.784 353.366C256.315 353.366 222.22 289.296 222.22 207.449C222.22 125.653 256.264 61.583 299.784 61.583C343.304 61.583 377.347 125.704 377.347 207.5C377.347 289.296 343.252 353.366 299.784 353.366ZM299.784 73.2461C264.092 73.2461 233.912 134.747 233.912 207.5C233.912 280.253 264.092 341.754 299.784 341.754C335.475 341.754 365.656 280.253 365.656 207.5C365.656 134.747 335.475 73.2461 299.784 73.2461Z" fill="url(#paint7_linear_788_2)"/>
<path d="M299.784 353.366C256.315 353.366 222.22 289.296 222.22 207.449C222.22 125.653 256.264 61.583 299.784 61.583C343.304 61.583 377.347 125.704 377.347 207.5C377.347 289.296 343.252 353.366 299.784 353.366ZM299.784 73.2461C264.092 73.2461 233.912 134.747 233.912 207.5C233.912 280.253 264.092 341.754 299.784 341.754C335.475 341.754 365.656 280.253 365.656 207.5C365.656 134.747 335.475 73.2461 299.784 73.2461Z" fill="url(#paint8_linear_788_2)"/>
<path d="M328.935 328.344C293.191 328.344 265.174 275.269 265.174 207.5C265.174 139.731 293.191 86.6561 328.935 86.6561C364.678 86.6561 392.695 139.731 392.695 207.5C392.695 275.269 364.678 328.344 328.935 328.344ZM328.935 94.4144C298.084 94.4144 272.951 145.126 272.951 207.449C272.951 269.772 298.084 320.534 328.935 320.534C359.785 320.534 384.918 269.823 384.918 207.5C384.918 145.177 359.785 94.4144 328.935 94.4144Z" fill="url(#paint9_linear_788_2)"/>
<path d="M352.729 304.247C324.145 304.247 301.792 261.756 301.792 207.5C301.792 153.244 324.196 110.753 352.729 110.753C381.313 110.753 403.665 153.244 403.665 207.5C403.665 261.756 381.262 304.247 352.729 304.247ZM352.729 116.61C327.853 116.61 307.612 157.405 307.612 207.5C307.612 257.595 327.853 298.39 352.729 298.39C377.605 298.39 397.846 257.595 397.846 207.5C397.846 157.405 377.605 116.61 352.729 116.61Z" fill="url(#paint10_linear_788_2)"/>
<path d="M373.897 281.435C352.471 281.435 335.063 248.244 335.063 207.449C335.063 166.654 352.471 133.514 373.897 133.514C395.322 133.514 412.73 166.705 412.73 207.449C412.73 248.192 395.322 281.435 373.897 281.435ZM373.897 137.419C354.635 137.419 338.978 168.863 338.978 207.5C338.978 246.137 354.635 277.581 373.897 277.581C393.159 277.581 408.816 246.137 408.816 207.5C408.816 168.863 393.159 137.419 373.897 137.419Z" fill="url(#paint11_linear_788_2)"/>
<path d="M392.592 261.294C377.038 261.294 364.42 237.146 364.42 207.5C364.42 177.854 377.09 153.706 392.592 153.706C408.146 153.706 420.816 177.854 420.816 207.5C420.816 237.146 408.146 261.294 392.592 261.294ZM392.592 156.429C378.532 156.429 367.098 179.344 367.098 207.5C367.098 235.656 378.532 258.571 392.592 258.571C406.653 258.571 418.086 235.656 418.086 207.5C418.086 179.344 406.653 156.429 392.592 156.429Z" fill="url(#paint12_linear_788_2)"/>
</g>
<defs>
<linearGradient id="paint0_linear_788_2" x1="99.5603" y1="207.5" x2="155.956" y2="207.5" gradientUnits="userSpaceOnUse">
<stop stop-color="#1FAD5C"/>
<stop offset="0.3082" stop-color="#167E43"/>
<stop offset="0.5902" stop-color="#105B31"/>
<stop offset="0.7992" stop-color="#0B4123"/>
<stop offset="0.9121" stop-color="#0A381E"/>
</linearGradient>
<linearGradient id="paint1_linear_788_2" x1="107.638" y1="207.5" x2="185.267" y2="207.5" gradientUnits="userSpaceOnUse">
<stop stop-color="#1FAD5C"/>
<stop offset="0.3082" stop-color="#167E43"/>
<stop offset="0.5902" stop-color="#105B31"/>
<stop offset="0.7992" stop-color="#0B4123"/>
<stop offset="0.9121" stop-color="#0A381E"/>
</linearGradient>
<linearGradient id="paint2_linear_788_2" x1="116.697" y1="207.5" x2="218.59" y2="207.5" gradientUnits="userSpaceOnUse">
<stop stop-color="#1FAD5C"/>
<stop offset="0.3082" stop-color="#167E43"/>
<stop offset="0.5902" stop-color="#105B31"/>
<stop offset="0.7992" stop-color="#0B4123"/>
<stop offset="0.9121" stop-color="#0A381E"/>
</linearGradient>
<linearGradient id="paint3_linear_788_2" x1="127.663" y1="207.5" x2="255.181" y2="207.5" gradientUnits="userSpaceOnUse">
<stop stop-color="#1FAD5C"/>
<stop offset="0.3082" stop-color="#167E43"/>
<stop offset="0.5902" stop-color="#105B31"/>
<stop offset="0.7992" stop-color="#0B4123"/>
<stop offset="0.9121" stop-color="#0A381E"/>
</linearGradient>
<linearGradient id="paint4_linear_788_2" x1="143.021" y1="207.5" x2="298.111" y2="207.5" gradientUnits="userSpaceOnUse">
<stop stop-color="#1FAD5C"/>
<stop offset="0.3082" stop-color="#167E43"/>
<stop offset="0.5902" stop-color="#105B31"/>
<stop offset="0.7992" stop-color="#0B4123"/>
<stop offset="0.9121" stop-color="#0A381E"/>
</linearGradient>
<linearGradient id="paint5_linear_788_2" x1="143.021" y1="207.5" x2="298.111" y2="207.5" gradientUnits="userSpaceOnUse">
<stop stop-color="#1FAD5C"/>
<stop offset="0.3082" stop-color="#167E43"/>
<stop offset="0.5902" stop-color="#105B31"/>
<stop offset="0.7992" stop-color="#0B4123"/>
<stop offset="0.9121" stop-color="#0A381E"/>
</linearGradient>
<linearGradient id="paint6_linear_788_2" x1="175.631" y1="207.5" x2="348.814" y2="207.5" gradientUnits="userSpaceOnUse">
<stop stop-color="#1FAD5C"/>
<stop offset="0.3082" stop-color="#167E43"/>
<stop offset="0.5902" stop-color="#105B31"/>
<stop offset="0.7992" stop-color="#0B4123"/>
<stop offset="0.9121" stop-color="#0A381E"/>
</linearGradient>
<linearGradient id="paint7_linear_788_2" x1="222.246" y1="207.5" x2="377.335" y2="207.5" gradientUnits="userSpaceOnUse">
<stop stop-color="#1FAD5C"/>
<stop offset="0.3082" stop-color="#167E43"/>
<stop offset="0.5902" stop-color="#105B31"/>
<stop offset="0.7992" stop-color="#0B4123"/>
<stop offset="0.9121" stop-color="#0A381E"/>
</linearGradient>
<linearGradient id="paint8_linear_788_2" x1="222.246" y1="207.5" x2="377.335" y2="207.5" gradientUnits="userSpaceOnUse">
<stop stop-color="#1FAD5C"/>
<stop offset="0.3082" stop-color="#167E43"/>
<stop offset="0.5902" stop-color="#105B31"/>
<stop offset="0.7992" stop-color="#0B4123"/>
<stop offset="0.9121" stop-color="#0A381E"/>
</linearGradient>
<linearGradient id="paint9_linear_788_2" x1="265.175" y1="207.5" x2="392.693" y2="207.5" gradientUnits="userSpaceOnUse">
<stop stop-color="#1FAD5C"/>
<stop offset="0.3082" stop-color="#167E43"/>
<stop offset="0.5902" stop-color="#105B31"/>
<stop offset="0.7992" stop-color="#0B4123"/>
<stop offset="0.9121" stop-color="#0A381E"/>
</linearGradient>
<linearGradient id="paint10_linear_788_2" x1="301.766" y1="207.5" x2="403.667" y2="207.5" gradientUnits="userSpaceOnUse">
<stop stop-color="#1FAD5C"/>
<stop offset="0.3082" stop-color="#167E43"/>
<stop offset="0.5902" stop-color="#105B31"/>
<stop offset="0.7992" stop-color="#0B4123"/>
<stop offset="0.9121" stop-color="#0A381E"/>
</linearGradient>
<linearGradient id="paint11_linear_788_2" x1="335.089" y1="207.5" x2="412.725" y2="207.5" gradientUnits="userSpaceOnUse">
<stop stop-color="#1FAD5C"/>
<stop offset="0.3082" stop-color="#167E43"/>
<stop offset="0.5902" stop-color="#105B31"/>
<stop offset="0.7992" stop-color="#0B4123"/>
<stop offset="0.9121" stop-color="#0A381E"/>
</linearGradient>
<linearGradient id="paint12_linear_788_2" x1="364.4" y1="207.5" x2="420.796" y2="207.5" gradientUnits="userSpaceOnUse">
<stop stop-color="#1FAD5C"/>
<stop offset="0.3082" stop-color="#167E43"/>
<stop offset="0.5902" stop-color="#105B31"/>
<stop offset="0.7992" stop-color="#0B4123"/>
<stop offset="0.9121" stop-color="#0A381E"/>
</linearGradient>
<clipPath id="clip0_788_2">
<rect width="520" height="415" fill="white"/>
</clipPath>
</defs>
</svg>
